# This file uses centimeters as units for non-parametric coordinates.

mtllib Lighter.mtl
g default
v 0.004548 5.267511 1.190730
v -0.000000 -4.297405 1.232382
v -0.000000 0.442485 1.232382
v -0.933232 -4.297405 1.100552
v -2.410283 -4.297405 0.693492
v -2.410283 0.442485 0.693492
v -0.933232 0.442485 1.100552
v -0.828799 5.267511 1.063356
v -2.324272 5.267511 0.670053
v 2.333369 5.267511 0.670053
v 1.484480 5.267511 1.063356
v 2.410283 0.442485 0.693492
v 1.531699 0.442485 1.100552
v 1.531699 -4.297405 1.100552
v 2.410283 -4.297405 0.693492
v -2.739877 -4.297405 -0.000000
v -2.447925 5.267511 0.382306
v 2.651824 5.267511 0.000000
v 2.739877 -4.297405 0.000000
v -2.739878 0.442485 -0.000000
v 2.739878 0.442485 0.000000
v 0.000000 -4.297405 0.000000
v -1.531699 -4.297405 -0.000000
v 1.531699 -4.297405 0.000000
v 0.004548 5.267511 -1.190730
v 0.000000 -4.297405 -1.232382
v 0.000000 0.442485 -1.232382
v 1.531699 -4.297405 -1.100552
v 2.410283 -4.297405 -0.693492
v 2.410283 0.442485 -0.693492
v 1.531699 0.442485 -1.100552
v 1.484480 5.267511 -1.063356
v 2.333369 5.267511 -0.670053
v -0.841160 5.267511 -1.063356
v -2.410283 -1.074957 -0.693492
v -1.531699 0.442485 -1.100552
v -1.531699 -4.297405 -1.100552
v -2.410283 -4.297405 -0.693492
v -0.897243 3.193600 -1.100552
v 0.000000 3.095141 -1.232382
v 1.531699 3.095141 -1.100552
v 2.410283 3.095141 -0.693492
v 2.739878 3.095141 0.000000
v 2.410283 3.095141 0.693492
v 1.531699 3.095141 1.100552
v -0.000000 3.095141 1.232382
v -0.897865 3.095141 1.100552
v -2.410283 3.095141 0.693492
v -2.605299 3.095141 0.197839
v -1.100799 3.261560 -1.100552
v 0.000000 2.036407 -1.232382
v 1.531699 2.036407 -1.100552
v 2.410283 2.036407 -0.693492
v 2.739878 2.036407 0.000000
v 2.410283 2.036407 0.693492
v 1.531699 2.036407 1.100552
v -0.000000 2.036407 1.232382
v -0.915549 2.036407 1.100552
v -2.410283 2.036407 0.693492
v -2.748228 3.140196 0.098920
v -0.950946 -4.387779 1.121536
v -2.456160 -4.387779 0.706715
v -0.950946 0.442485 1.121536
v -2.456160 0.442485 0.706715
v -0.932926 2.066797 1.121536
v -2.456160 2.066797 0.706715
v 2.456319 2.066797 0.706715
v 1.560983 2.066797 1.121536
v 1.560983 0.442485 1.121536
v 2.456319 0.442485 0.706715
v 1.560983 -4.387779 1.121536
v 2.456319 -4.387779 0.706715
v 0.000080 -4.387779 1.255879
v 0.000080 0.442485 1.255879
v 0.000080 2.066797 1.255879
v 0.000080 5.267511 1.255879
v 1.560983 5.267511 1.121536
v -1.560824 -4.387779 -0.000000
v 0.000080 -4.387779 0.000000
v -2.792038 -4.387779 -0.000000
v -0.878864 5.267511 1.121536
v -2.456160 5.267511 0.706715
v -2.517748 5.267511 0.403223
v 2.456319 5.267511 0.706715
v 2.792197 5.267511 0.000000
v 1.560983 -4.387779 0.000000
v 2.792197 -4.387779 0.000000
v -2.792039 0.442485 -0.000000
v -2.800548 3.191632 0.100806
v 2.792198 2.066797 0.000000
v 2.792198 0.442485 0.000000
v 1.560983 -4.387779 -1.121536
v 2.456319 -4.387779 -0.706715
v 1.560983 0.442485 -1.121536
v 2.456319 0.442485 -0.706715
v 1.560983 2.066797 -1.121536
v 2.456319 2.066797 -0.706715
v -1.560824 0.442485 -1.121536
v -2.456160 -1.103890 -0.706715
v -1.560824 -4.387779 -1.121536
v -2.456160 -4.387779 -0.706715
v 0.000080 -4.387779 -1.255880
v 0.000080 0.442485 -1.255879
v -1.121708 3.315310 -1.121536
v 0.000080 2.066797 -1.255879
v 0.000080 5.267511 -1.255879
v -0.891901 5.267511 -1.121536
v 1.560983 5.267511 -1.121536
v 2.456319 5.267511 -0.706715
v -0.914271 3.246055 -1.121536
v 0.000080 3.145719 -1.255879
v 1.560983 3.145719 -1.121536
v 2.456319 3.145719 -0.706715
v 2.792198 3.145719 0.000000
v 2.456319 3.145719 0.706715
v 1.560983 3.145719 1.121536
v 0.000080 3.145719 1.255879
v -0.914905 3.145719 1.121536
v -2.456160 3.145719 0.706715
v -2.654893 3.145719 0.201611
vt 0.584463 0.121017
vt 0.486776 0.120826
vt 0.338484 0.510242
vt 0.173424 0.511616
vt 0.583626 0.305581
vt 0.622543 0.121413
vt 0.426734 0.121028
vt 0.427036 0.308052
vt 0.134175 0.510353
vt 0.621655 0.305877
vt 0.523950 0.120780
vt 0.523246 0.305853
vt 0.486430 0.306428
vt 0.237253 0.510225
vt 0.272417 0.509823
vt 0.883608 0.328663
vt 0.880759 0.368609
vt 0.867839 0.432413
vt 0.873524 0.264124
vt 0.853690 0.228077
vt 0.396623 0.121261
vt 0.839411 0.448420
vt 0.418501 0.497359
vt 0.651971 0.490956
vt 0.823327 0.216141
vt 0.652644 0.121912
vt 0.395969 0.308992
vt 0.651744 0.306405
vt 0.831369 0.332281
vt 0.835865 0.397207
vt 0.826873 0.267354
vt 0.131781 0.540054
vt 0.167527 0.541122
vt 0.167873 0.712614
vt 0.132260 0.708309
vt 0.595089 0.897192
vt 0.634559 0.896933
vt 0.320821 0.663164
vt 0.285620 0.722281
vt 0.276040 0.544884
vt 0.306454 0.541742
vt 0.222323 0.542272
vt 0.285688 0.722341
vt 0.225918 0.717793
vt 0.497879 0.888400
vt 0.531349 0.894033
vt 0.779130 0.335898
vt 0.780222 0.270584
vt 0.794898 0.232148
vt 0.789214 0.400437
vt 0.809047 0.436484
vt 0.103879 0.707988
vt 0.103496 0.540710
vt 0.663390 0.891582
vt 0.330513 0.539603
vt 0.355340 0.696438
vt 0.245429 0.829349
vt 0.209917 0.816473
vt 0.154451 0.804826
vt 0.119293 0.798606
vt 0.091267 0.795811
vt 0.652097 0.409450
vt 0.622123 0.408918
vt 0.584360 0.408544
vt 0.524001 0.409032
vt 0.487745 0.409911
vt 0.423896 0.412791
vt 0.400943 0.410455
vt 0.250408 0.829607
vt 0.217571 0.777313
vt 0.161173 0.768027
vt 0.125347 0.762579
vt 0.097085 0.760685
vt 0.651959 0.368226
vt 0.621935 0.367736
vt 0.584081 0.367442
vt 0.523977 0.368155
vt 0.488162 0.369738
vt 0.428973 0.372118
vt 0.398623 0.407748
vt 0.328750 0.138319
vt 0.270278 0.139475
vt 0.272600 0.321955
vt 0.330923 0.320408
vt 0.272572 0.383705
vt 0.331709 0.381503
vt 0.142140 0.382680
vt 0.178885 0.383866
vt 0.178434 0.322540
vt 0.141535 0.322262
vt 0.175985 0.140549
vt 0.139024 0.140764
vt 0.234440 0.139935
vt 0.236812 0.322497
vt 0.237304 0.384351
vt 0.886789 0.593820
vt 0.881012 0.551931
vt 0.831724 0.524918
vt 0.831498 0.593638
vt 0.862968 0.485603
vt 0.831903 0.470713
vt 0.880648 0.662521
vt 0.831271 0.662358
vt 0.862255 0.701878
vt 0.831092 0.716563
vt 0.360320 0.319482
vt 0.358162 0.137724
vt 0.358796 0.421619
vt 0.112105 0.322060
vt 0.112908 0.381563
vt 0.109561 0.140930
vt 0.628010 0.521313
vt 0.590595 0.521631
vt 0.591709 0.705327
vt 0.628996 0.704884
vt 0.592003 0.767423
vt 0.628993 0.766586
vt 0.435243 0.647204
vt 0.473187 0.705672
vt 0.471859 0.522325
vt 0.434399 0.522514
vt 0.531245 0.522003
vt 0.532604 0.705667
vt 0.490845 0.813621
vt 0.533302 0.767442
vt 0.776207 0.593456
vt 0.781895 0.662195
vt 0.800027 0.701673
vt 0.782348 0.524755
vt 0.800740 0.485397
vt 0.658657 0.704491
vt 0.657712 0.521057
vt 0.658560 0.765711
vt 0.404676 0.522676
vt 0.405893 0.706099
vt 0.533663 0.808616
vt 0.498746 0.811188
vt 0.531763 0.891556
vt 0.592298 0.808961
vt 0.592664 0.894394
vt 0.628929 0.807574
vt 0.631193 0.893261
vt 0.659656 0.887437
vt 0.658679 0.805782
vt 0.141973 0.422697
vt 0.112451 0.420290
vt 0.109585 0.500232
vt 0.137650 0.506805
vt 0.175970 0.508905
vt 0.178530 0.424762
vt 0.237271 0.425653
vt 0.237043 0.507761
vt 0.272408 0.424999
vt 0.271033 0.507249
vt 0.331589 0.422155
vt 0.334149 0.507412
vt 0.352039 0.420770
vt 0.400213 0.408376
vt 0.397970 0.308884
vt 0.320712 0.661016
vt 0.284638 0.721516
vt 0.248483 0.829380
vt 0.355273 0.694881
vt 0.242422 0.828987
vt 0.215234 0.900446
vt 0.421028 0.496201
vt 0.402846 0.410869
vt 0.075914 0.867337
vt 0.105744 0.504224
vt 0.103278 0.870817
vt 0.135727 0.877712
vt 0.187038 0.890054
vt 0.622100 0.490456
vt 0.584862 0.489971
vt 0.432574 0.493483
vt 0.493536 0.490340
vt 0.526489 0.489687
vt 0.217650 0.901505
vt 0.495900 0.890735
vt 0.345783 0.503668
vt 0.347368 0.505768
vn -0.520242 -0.000000 0.854019
vn -0.218193 0.000000 0.975906
vn -0.218293 0.000306 0.975883
vn -0.529794 -0.001136 0.848126
vn -0.218180 0.001456 0.975908
vn -0.559415 -0.002442 0.828884
vn 0.673412 0.000000 0.739267
vn 0.218193 0.000000 0.975906
vn 0.218193 0.000000 0.975906
vn 0.673412 -0.000000 0.739267
vn 0.218193 0.000000 0.975906
vn 0.673412 -0.000000 0.739267
vn 0.000000 0.000000 1.000000
vn 0.000000 0.000075 1.000000
vn -0.000000 0.000359 1.000000
vn 0.000000 -1.000000 0.000000
vn 0.000000 -1.000000 0.000000
vn 0.000000 -1.000000 0.000000
vn 0.000000 -1.000000 0.000000
vn -0.000000 -1.000000 -0.000000
vn -0.000000 -1.000000 -0.000000
vn -0.000000 -1.000000 -0.000000
vn -0.000000 -1.000000 -0.000000
vn 0.000000 -1.000000 0.000000
vn 0.000000 -1.000000 0.000000
vn 0.000000 -1.000000 0.000000
vn 0.000000 -1.000000 0.000000
vn 0.000000 -1.000000 -0.000000
vn 0.000000 -1.000000 -0.000000
vn 0.000000 -1.000000 -0.000000
vn 0.000000 -1.000000 -0.000000
vn -0.899921 -0.003626 0.436038
vn -0.903184 -0.000000 0.429254
vn -0.886245 0.008414 0.463140
vn 0.903184 -0.000000 0.429254
vn 0.903184 0.000000 0.429254
vn 0.903184 -0.000000 0.429254
vn 0.673412 -0.000000 -0.739267
vn 0.218193 0.000000 -0.975906
vn 0.218193 0.000000 -0.975906
vn 0.673412 -0.000000 -0.739267
vn 0.218193 0.000000 -0.975906
vn 0.673412 0.000000 -0.739267
vn -0.678399 -0.000000 -0.734694
vn -0.129673 0.002259 -0.991554
vn -0.204321 0.000000 -0.978904
vn -0.673412 -0.000000 -0.739267
vn 0.000000 0.000000 -1.000000
vn -0.004038 0.001420 -0.999991
vn -0.097334 0.010730 -0.995194
vn -0.014083 0.005546 -0.999886
vn 0.000000 -1.000000 0.000000
vn 0.000000 -1.000000 0.000000
vn 0.000000 -1.000000 0.000000
vn 0.000000 -1.000000 0.000000
vn 0.000000 -1.000000 0.000000
vn 0.000000 -1.000000 0.000000
vn 0.000000 -1.000000 0.000000
vn 0.000000 -1.000000 0.000000
vn 0.000000 -1.000000 0.000000
vn 0.000000 -1.000000 0.000000
vn 0.000000 -1.000000 0.000000
vn 0.000000 -1.000000 0.000000
vn -0.000000 -1.000000 0.000000
vn -0.000000 -1.000000 0.000000
vn -0.000000 -1.000000 0.000000
vn -0.000000 -1.000000 0.000000
vn 0.903184 -0.000000 -0.429254
vn 0.903184 -0.000000 -0.429254
vn 0.903184 0.000000 -0.429254
vn -0.903184 -0.000000 -0.429254
vn -0.903184 -0.000000 -0.429254
vn 0.013357 0.002213 -0.999908
vn -0.136013 0.008802 -0.990668
vn -0.147085 0.000794 -0.989124
vn 0.001300 0.000290 -0.999999
vn 0.218193 0.000000 -0.975906
vn 0.218193 0.000000 -0.975906
vn 0.673412 0.000000 -0.739267
vn 0.673412 0.000000 -0.739267
vn 0.903184 0.000000 -0.429254
vn 0.903184 0.000000 -0.429254
vn 0.673412 0.000000 0.739267
vn 0.903184 0.000000 0.429254
vn 0.903184 0.000000 0.429254
vn 0.673412 0.000000 0.739267
vn 0.218193 0.000000 0.975906
vn 0.218193 0.000000 0.975906
vn -0.000000 0.000460 1.000000
vn -0.000000 0.000464 1.000000
vn -0.218351 0.001844 0.975868
vn -0.217661 0.001849 0.976023
vn -0.419006 0.008810 0.907941
vn -0.436266 0.005542 0.899801
vn -0.951761 0.016202 0.306414
vn -0.921326 0.039878 0.386740
vn 0.520242 -0.000000 -0.854019
vn 0.529794 0.001136 -0.848126
vn 0.218293 -0.000306 -0.975883
vn 0.218193 0.000000 -0.975906
vn 0.559415 0.002442 -0.828884
vn 0.218180 -0.001456 -0.975908
vn -0.673412 -0.000000 -0.739267
vn -0.673412 -0.000000 -0.739267
vn -0.218193 0.000000 -0.975906
vn -0.218193 0.000000 -0.975906
vn -0.673412 0.000000 -0.739267
vn -0.218193 0.000000 -0.975906
vn 0.000000 0.000000 -1.000000
vn 0.000000 -0.000075 -1.000000
vn 0.000000 -0.000359 -1.000000
vn 0.000000 1.000000 0.000000
vn 0.000000 1.000000 0.000000
vn 0.000000 1.000000 0.000000
vn 0.000000 1.000000 0.000000
vn 0.000000 1.000000 0.000000
vn 0.000000 1.000000 0.000000
vn 0.000000 1.000000 0.000000
vn 0.000000 1.000000 0.000000
vn 0.000000 1.000000 0.000000
vn 0.000000 1.000000 0.000000
vn 0.000000 1.000000 0.000000
vn 0.000000 1.000000 0.000000
vn -0.000000 1.000000 0.000000
vn -0.000000 1.000000 0.000000
vn -0.000000 1.000000 0.000000
vn -0.000000 1.000000 0.000000
vn 0.899921 0.003626 -0.436038
vn 0.903184 -0.000000 -0.429254
vn 0.886245 -0.008414 -0.463140
vn -0.903184 -0.000000 -0.429254
vn -0.903184 -0.000000 -0.429254
vn -0.903184 0.000000 -0.429254
vn -0.673412 -0.000000 0.739267
vn -0.673412 0.000000 0.739267
vn -0.218193 0.000000 0.975906
vn -0.218193 0.000000 0.975906
vn -0.673412 0.000000 0.739267
vn -0.218193 0.000000 0.975906
vn 0.678399 0.000000 0.734694
vn 0.673412 0.000000 0.739267
vn 0.204321 0.000000 0.978904
vn 0.129673 -0.002259 0.991554
vn 0.000000 0.000000 1.000000
vn 0.004038 -0.001420 0.999991
vn 0.014083 -0.005546 0.999886
vn 0.097334 -0.010730 0.995194
vn 0.000000 1.000000 0.000000
vn 0.000000 1.000000 0.000000
vn 0.000000 1.000000 0.000000
vn 0.000000 1.000000 0.000000
vn -0.000000 1.000000 -0.000000
vn -0.000000 1.000000 -0.000000
vn -0.000000 1.000000 -0.000000
vn -0.000000 1.000000 -0.000000
vn 0.000000 1.000000 0.000000
vn 0.000000 1.000000 0.000000
vn 0.000000 1.000000 0.000000
vn 0.000000 1.000000 0.000000
vn 0.000000 1.000000 -0.000000
vn 0.000000 1.000000 -0.000000
vn 0.000000 1.000000 -0.000000
vn 0.000000 1.000000 -0.000000
vn -0.903184 0.000000 0.429254
vn -0.903184 -0.000000 0.429254
vn -0.903184 0.000000 0.429254
vn 0.903184 0.000000 0.429254
vn 0.903184 0.000000 0.429254
vn -0.013362 -0.015526 0.999790
vn -0.001725 -0.019597 0.999806
vn 0.145937 -0.020450 0.989083
vn 0.135391 -0.021573 0.990557
vn -0.219304 -0.014338 0.975551
vn -0.216460 -0.021417 0.976057
vn -0.675116 -0.021256 0.737405
vn -0.670328 -0.031732 0.741386
vn -0.902579 -0.036585 0.428967
vn -0.902915 -0.024378 0.429127
vn -0.675116 -0.021256 -0.737405
vn -0.670328 -0.031732 -0.741386
vn -0.902579 -0.036585 -0.428967
vn -0.902915 -0.024378 -0.429127
vn -0.219304 -0.014338 -0.975551
vn -0.216460 -0.021417 -0.976057
vn 0.000070 -0.013207 -0.999913
vn -0.000101 -0.019606 -0.999808
vn 0.218567 -0.015284 -0.975702
vn 0.217256 -0.021878 -0.975870
vn 0.417280 -0.023830 -0.908466
vn 0.426093 -0.027739 -0.904254
vn 0.925632 -0.037897 -0.376524
vn 0.903649 -0.052046 -0.425099
vn 0.000000 0.036643 -0.999328
vn 0.000000 0.036643 -0.999328
vn 0.000000 0.036643 -0.999328
vn 0.000000 0.036643 -0.999328
vn -0.510882 0.486010 0.709080
vn -0.510882 0.486010 0.709080
vn -0.510882 0.486010 0.709080
vn -0.510882 0.486010 0.709080
vn -0.582244 0.088997 0.808129
vn -0.582244 0.088997 0.808129
vn -0.582244 0.088997 0.808129
vn -0.582244 0.088997 0.808129
vn 0.000001 0.415663 -0.909519
vn 0.000001 0.415663 -0.909519
vn 0.000001 0.415663 -0.909519
vn 0.000001 0.415663 -0.909519
vn -0.756828 0.008562 0.653558
vn -0.756828 0.008562 0.653558
vn -0.756828 0.008562 0.653558
vn -0.756828 0.008562 0.653558
vn -0.160950 0.099324 -0.981952
vn -0.160950 0.099324 -0.981952
vn -0.160950 0.099324 -0.981952
vn -0.160950 0.099324 -0.981952
vn 0.135408 0.405583 0.903973
vn 0.135408 0.405583 0.903973
vn 0.135408 0.405583 0.903973
vn 0.135408 0.405583 0.903973
vn 0.573529 0.603684 -0.553741
vn 0.573529 0.603684 -0.553741
vn 0.573529 0.603684 -0.553741
vn 0.573529 0.603684 -0.553741
vn 0.000000 1.000000 -0.000009
vn 0.000000 1.000000 -0.000009
vn 0.000000 1.000000 -0.000009
vn 0.000000 1.000000 -0.000009
vn 0.000000 1.000000 -0.000011
vn 0.000000 1.000000 -0.000011
vn 0.000000 1.000000 -0.000011
vn 0.000000 1.000000 -0.000011
vn 0.000000 1.000000 -0.000004
vn 0.000000 1.000000 -0.000004
vn 0.000000 1.000000 -0.000004
vn 0.000000 1.000000 -0.000004
vn 0.000000 1.000000 0.000002
vn 0.000000 1.000000 0.000002
vn 0.000000 1.000000 0.000002
vn 0.000000 1.000000 0.000002
vn 0.000000 1.000000 -0.000001
vn 0.000000 1.000000 -0.000001
vn 0.000000 1.000000 -0.000001
vn 0.000000 1.000000 -0.000001
vn 0.000000 1.000000 0.000003
vn 0.000000 1.000000 0.000003
vn 0.000000 1.000000 0.000003
vn 0.000000 1.000000 0.000003
vn 0.000000 1.000000 0.000006
vn 0.000000 1.000000 0.000006
vn 0.000000 1.000000 0.000006
vn 0.000000 1.000000 0.000006
vn 0.000000 1.000000 -0.000002
vn 0.000000 1.000000 -0.000002
vn 0.000000 1.000000 -0.000002
vn 0.000000 1.000000 -0.000002
vn 0.000000 1.000000 -0.000010
vn 0.000000 1.000000 -0.000010
vn 0.000000 1.000000 -0.000010
vn 0.000000 1.000000 -0.000010
vn 0.000000 1.000000 0.000000
vn 0.000000 1.000000 0.000000
vn 0.000000 1.000000 0.000000
vn 0.000000 1.000000 0.000000
s 1
g pCube3
usemtl initialShadingGroup
f 62/7/1 61/2/2 63/13/3 64/8/4
f 64/8/4 63/13/3 65/78/5 66/79/6
f 67/75/7 68/76/8 69/5/9 70/10/10
f 70/10/10 69/5/9 71/1/11 72/6/12
f 73/11/13 71/1/11 69/5/9 74/12/14
f 63/13/3 61/2/2 73/11/13 74/12/14
f 74/12/14 69/5/9 68/76/8 75/77/15
f 63/13/3 74/12/14 75/77/15 65/78/5
s off
f 73/16/16 61/17/17 78/30/18 79/29/19
f 61/17/20 62/18/21 80/22/22 78/30/23
f 71/19/24 73/16/25 79/29/26 86/31/27
f 72/20/28 71/19/29 86/31/30 87/25/31
s 1
f 88/159/32 80/21/33 62/7/1 64/8/4
f 89/158/34 88/159/32 64/8/4 66/79/6
f 91/28/35 90/74/36 67/75/7 70/10/10
f 87/26/37 91/28/35 70/10/10 72/6/12
s 3
f 93/32/38 92/33/39 94/34/40 95/35/41
f 95/35/41 94/34/40 96/71/42 97/72/43
f 99/160/44 98/161/45 100/40/46 101/41/47
f 102/42/48 100/40/46 98/161/45 103/44/49
f 94/34/40 92/33/39 102/42/48 103/44/49
f 103/44/49 98/161/45 104/162/50 105/70/51
f 94/34/40 103/44/49 105/70/51 96/71/42
s off
f 102/47/52 92/48/53 86/31/54 79/29/55
f 92/48/56 93/49/57 87/25/58 86/31/59
f 100/50/60 102/47/61 79/29/62 78/30/63
f 101/51/64 100/50/65 78/30/66 80/22/67
s 3
f 91/52/68 87/53/69 93/32/38 95/35/41
f 90/73/70 91/52/68 95/35/41 97/72/43
f 80/55/71 88/163/72 99/160/44 101/41/47
f 111/58/73 110/164/74 107/165/75 106/172/76
f 112/59/77 111/58/73 106/172/76 108/171/78
f 113/60/79 112/59/77 108/171/78 109/170/80
f 85/168/81 114/61/82 113/60/79 109/170/80
s 1
f 115/63/83 114/62/84 85/24/85 84/173/86
f 84/173/86 77/174/87 116/64/88 115/63/83
f 117/65/89 116/64/88 77/174/87 76/177/90
f 118/66/91 117/65/89 76/177/90 81/176/92
f 119/67/93 118/66/91 81/176/92 82/175/94
f 83/166/95 120/167/96 119/67/93 82/175/94
s 3
f 105/70/51 104/162/50 110/164/74 111/58/73
f 96/71/42 105/70/51 111/58/73 112/59/77
f 97/72/43 96/71/42 112/59/77 113/60/79
f 114/61/82 90/73/70 97/72/43 113/60/79
s 1
f 67/75/7 90/74/36 114/62/84 115/63/83
f 115/63/83 116/64/88 68/76/8 67/75/7
f 75/77/15 68/76/8 116/64/88 117/65/89
f 65/78/5 75/77/15 117/65/89 118/66/91
f 66/79/6 65/78/5 118/66/91 119/67/93
f 120/167/96 89/158/34 66/79/6 119/67/93
s 5
f 5/81/97 6/84/98 7/83/99 4/82/100
f 6/84/98 59/86/101 58/85/102 7/83/99
f 55/87/103 12/90/104 13/89/105 56/88/106
f 12/90/104 15/92/107 14/91/108 13/89/105
f 2/93/109 3/94/110 13/89/105 14/91/108
f 7/83/99 3/94/110 2/93/109 4/82/100
f 3/94/110 57/95/111 56/88/106 13/89/105
f 7/83/99 58/85/102 57/95/111 3/94/110
s off
f 2/96/112 22/99/113 23/98/114 4/97/115
f 4/97/116 23/98/117 16/101/118 5/100/119
f 14/102/120 24/103/121 22/99/122 2/96/123
f 15/104/124 19/105/125 24/103/126 14/102/127
s 5
f 20/106/128 6/84/98 5/81/97 16/107/129
f 60/108/130 59/86/101 6/84/98 20/106/128
f 21/109/131 12/90/104 55/87/103 54/110/132
f 19/111/133 15/92/107 12/90/104 21/109/131
s 7
f 29/112/134 30/115/135 31/114/136 28/113/137
f 30/115/135 53/117/138 52/116/139 31/114/136
f 35/118/140 38/121/141 37/120/142 36/119/143
f 26/122/144 27/123/145 36/119/143 37/120/142
f 31/114/136 27/123/145 26/122/144 28/113/137
f 27/123/145 51/125/146 50/124/147 36/119/143
f 31/114/136 52/116/139 51/125/146 27/123/145
s off
f 26/126/148 22/99/149 24/103/150 28/127/151
f 28/127/152 24/103/153 19/105/154 29/128/155
f 37/129/156 23/98/157 22/99/158 26/126/159
f 38/130/160 16/101/161 23/98/162 37/129/163
s 7
f 21/131/164 30/115/135 29/112/134 19/132/165
f 54/133/166 53/117/138 30/115/135 21/131/164
f 16/134/167 38/121/141 35/118/140 20/135/168
f 40/136/169 25/138/170 34/45/171 39/137/172
f 41/139/173 32/140/174 25/138/170 40/136/169
f 42/141/175 33/142/176 32/140/174 41/139/173
f 18/143/177 33/142/176 42/141/175 43/144/178
s 5
f 44/145/179 10/148/180 18/147/181 43/146/182
f 10/148/180 44/145/179 45/150/183 11/149/184
f 46/151/185 1/152/186 11/149/184 45/150/183
f 47/153/187 8/154/188 1/152/186 46/151/185
f 48/155/189 9/156/190 8/154/188 47/153/187
f 17/180/191 9/156/190 48/155/189 49/157/192
s 7
f 51/125/146 40/136/169 39/137/172 50/124/147
f 52/116/139 41/139/173 40/136/169 51/125/146
f 53/117/138 42/141/175 41/139/173 52/116/139
f 43/144/178 42/141/175 53/117/138 54/133/166
s 5
f 55/87/103 44/145/179 43/146/182 54/110/132
f 44/145/179 55/87/103 56/88/106 45/150/183
f 57/95/111 46/151/185 45/150/183 56/88/106
f 58/85/102 47/153/187 46/151/185 57/95/111
f 59/86/101 48/155/189 47/153/187 58/85/102
f 49/157/192 48/155/189 59/86/101 60/108/130
s off
f 60/80/193 20/27/194 88/159/195 89/158/196
f 35/38/197 36/39/198 98/161/199 99/160/200
f 36/43/201 50/69/202 104/162/203 98/161/204
f 20/56/205 35/38/206 99/160/207 88/163/208
f 39/57/209 34/178/210 107/165/211 110/164/212
f 17/23/213 49/68/214 120/167/215 83/166/216
f 50/69/217 39/57/218 110/164/219 104/162/220
f 49/68/221 60/80/222 89/158/223 120/167/224
f 34/45/225 25/138/226 106/46/227 107/179/228
f 25/138/229 32/140/230 108/36/231 106/46/232
f 32/140/233 33/142/234 109/37/235 108/36/236
f 33/142/237 18/143/238 85/54/239 109/37/240
f 18/147/241 10/148/242 84/9/243 85/169/244
f 10/148/245 11/149/246 77/4/247 84/9/248
f 11/149/249 1/152/250 76/14/251 77/4/252
f 1/152/253 8/154/254 81/15/255 76/14/256
f 8/154/257 9/156/258 82/3/259 81/15/260
f 9/156/261 17/180/262 83/181/263 82/3/264
