# This file uses centimeters as units for non-parametric coordinates.

mtllib Seaweed_rigged.mtl
g skinCluster1Set tweakSet1
v 0.185771 38.617668 0.408272
v -0.115952 38.617668 0.408272
v 0.185771 40.764858 -0.382766
v -0.115952 40.764858 -0.382766
v 0.416335 2.984943 0.624623
v 0.268080 2.984943 1.013311
v 0.489705 -1.046183 0.816926
v 0.341429 -1.046183 1.205666
v -0.198261 2.984943 1.013311
v -0.346517 2.984943 0.624623
v -0.271611 -1.046183 1.205666
v -0.419887 -1.046183 0.816926
v 0.416335 6.992729 0.624710
v 0.268113 6.992729 1.013311
v -0.198295 6.992729 1.013311
v -0.346517 6.992729 0.624710
v 0.341834 11.361910 0.508925
v 0.222580 11.361910 0.821576
v -0.152763 11.361910 0.821576
v -0.272016 11.361910 0.508925
v 0.341834 14.417623 0.508954
v 0.222591 14.417623 0.821576
v -0.152774 14.417623 0.821576
v -0.272016 14.417623 0.508954
v 0.416335 19.483734 0.624820
v 0.268155 19.483734 1.013311
v -0.198337 19.483734 1.013311
v -0.346517 19.483734 0.624820
v 0.349879 24.252924 0.521474
v 0.227515 24.252924 0.842281
v -0.157697 24.252924 0.842281
v -0.280061 24.252924 0.521474
v 0.324318 28.785515 0.454448
v 0.201950 28.785515 0.775268
v -0.132132 28.785515 0.775268
v -0.254501 28.785515 0.454448
v 0.397711 33.251030 0.561716
v 0.244298 33.251030 0.963923
v -0.174480 33.251030 0.963923
v -0.327892 33.251030 0.561716
v 0.188006 37.846649 0.816361
v 0.341426 37.846649 0.414133
v 0.251073 38.294201 0.579478
v -0.271608 37.846649 0.414133
v -0.118188 37.846649 0.816361
v -0.181255 38.294201 0.579478
v 0.240345 2.984943 -0.985883
v 0.416116 2.984943 -0.525290
v 0.313692 -1.046183 -1.178238
v 0.489468 -1.046183 -0.717584
v -0.346298 2.984943 -0.525290
v -0.170528 2.984943 -0.985883
v -0.419650 -1.046183 -0.717584
v -0.243874 -1.046183 -1.178238
v 0.240385 6.992729 -0.985883
v 0.416116 6.992729 -0.525393
v -0.346298 6.992729 -0.525393
v -0.170567 6.992729 -0.985883
v 0.200272 11.361910 -0.787128
v 0.341657 11.361910 -0.416640
v -0.271839 11.361910 -0.416640
v -0.130454 11.361910 -0.787128
v 0.200285 14.417623 -0.787128
v 0.341657 14.417623 -0.416674
v -0.271839 14.417623 -0.416674
v -0.130467 14.417623 -0.787128
v 0.240435 19.483734 -0.985883
v 0.416116 19.483734 -0.525524
v -0.346298 19.483734 -0.525524
v -0.170617 19.483734 -0.985883
v 0.204625 24.252924 -0.808592
v 0.349698 24.252924 -0.428438
v -0.279880 24.252924 -0.428438
v -0.134807 24.252924 -0.808592
v 0.179058 28.785515 -0.741579
v 0.324145 28.785515 -0.361410
v -0.254327 28.785515 -0.361409
v -0.109240 28.785515 -0.741579
v 0.215600 33.251030 -0.937583
v 0.397494 33.251030 -0.460970
v -0.327675 33.251030 -0.460970
v -0.145781 33.251030 -0.937583
v 0.341217 37.847210 -0.313322
v 0.159280 39.994633 -0.789896
v 0.234045 40.525494 -0.509329
v -0.089552 39.994442 -0.789826
v -0.271455 37.846931 -0.313143
v -0.164283 40.525215 -0.509346
v -0.277380 37.375378 0.429267
v -0.123960 37.375378 0.831493
v 0.347198 37.375378 0.429267
v 0.193779 37.375378 0.831493
v -0.277221 37.375633 -0.328303
v -0.095318 37.375919 -0.804978
v 0.346988 37.375881 -0.328463
v 0.165055 37.376091 -0.805041
vt 0.725571 0.211456
vt 0.555598 0.211130
vt 0.558907 0.284483
vt 0.720450 0.284825
vt 0.551819 0.136562
vt 0.770153 0.137547
vt 0.555088 0.364381
vt 0.691299 0.364511
vt 0.375372 0.284848
vt 0.212842 0.285804
vt 0.267038 0.365205
vt 0.402127 0.364628
vt 0.404302 0.136535
vt 0.425763 0.211173
vt 0.494523 0.211031
vt 0.492080 0.136311
vt 0.423402 0.059570
vt 0.449790 0.067902
vt 0.529882 0.067727
vt 0.553994 0.059285
vt 0.550237 0.031347
vt 0.527978 0.024316
vt 0.439916 0.024507
vt 0.419576 0.031632
vt 0.849131 0.285319
vt 0.790344 0.284997
vt 0.748867 0.364588
vt 0.796813 0.364797
vt 0.500045 0.284416
vt 0.434275 0.284554
vt 0.451095 0.364413
vt 0.506192 0.364331
vt 0.856845 0.212063
vt 0.797307 0.211671
vt 0.509895 0.421447
vt 0.454991 0.421471
vt 0.449857 0.513087
vt 0.514716 0.513010
vt 0.558681 0.421313
vt 0.694245 0.420996
vt 0.271197 0.421187
vt 0.406419 0.421391
vt 0.767516 0.599019
vt 0.816763 0.599265
vt 0.860256 0.512617
vt 0.801592 0.512694
vt 0.229821 0.513290
vt 0.391609 0.513140
vt 0.751546 0.420841
vt 0.799102 0.420599
vt 0.572760 0.512945
vt 0.732166 0.512770
vt 0.570825 0.598759
vt 0.708930 0.598927
vt 0.465447 0.598789
vt 0.521309 0.598690
vt 0.526351 0.683131
vt 0.477120 0.683159
vt 0.472004 0.764374
vt 0.530122 0.764311
vt 0.697457 0.682805
vt 0.576764 0.683020
vt 0.590014 0.764237
vt 0.731732 0.764069
vt 0.798598 0.682531
vt 0.756806 0.682682
vt 0.803424 0.764004
vt 0.855043 0.763934
vt 0.426742 0.683123
vt 0.306470 0.683045
vt 0.268002 0.764503
vt 0.411865 0.764408
vt 0.425989 0.838222
vt 0.317285 0.839039
vt 0.323578 0.847625
vt 0.427619 0.846740
vt 0.532764 0.837741
vt 0.487310 0.837833
vt 0.489227 0.846398
vt 0.533300 0.846292
vt 0.813123 0.838945
vt 0.775135 0.838658
vt 0.755290 0.884315
vt 0.789542 0.885547
vt 0.415983 0.599040
vt 0.278318 0.599750
vt 0.338387 0.901040
vt 0.435379 0.861022
vt 0.456404 0.854761
vt 0.317462 0.896764
vt 0.701129 0.838303
vt 0.593874 0.837884
vt 0.594682 0.846318
vt 0.695616 0.846843
vt 0.661440 0.899262
vt 0.699791 0.897351
vt 0.586168 0.860166
vt 0.547104 0.862396
vt 0.567654 0.853916
vt 0.494429 0.848534
vt 0.515674 0.857143
vt 0.715387 0.892966
vt 0.737547 0.900169
vt 0.763543 0.896326
vt 0.344688 0.137094
vt 0.364818 0.211521
vt 0.196280 0.212552
vt 0.840553 0.137875
vt 0.919851 0.138796
vt 0.270701 0.887433
vt 0.055564 0.139994
vt 0.125206 0.213055
vt 0.126248 0.139256
vt 0.142164 0.286243
vt 0.209989 0.365484
vt 0.213996 0.421073
vt 0.159180 0.513356
vt 0.219626 0.600076
vt 0.247533 0.682995
vt 0.194843 0.764565
vt 0.243875 0.839635
vn -0.983797 0.013200 -0.178799
vn -0.983832 0.013200 0.178606
vn -0.983166 0.010800 0.182394
vn -0.983129 0.010600 -0.182605
vn -0.739376 -0.658578 0.139995
vn -0.983832 0.013200 0.178606
vn -0.983797 0.013200 -0.178799
vn -0.739320 -0.658618 -0.140104
vn -0.983129 0.010600 -0.182605
vn -0.983166 0.010800 0.182394
vn -0.983644 0.010700 0.179808
vn -0.983591 0.010600 -0.180098
vn 0.983166 0.010800 0.182394
vn 0.983129 0.010600 -0.182605
vn 0.983591 0.010600 -0.180098
vn 0.983644 0.010700 0.179808
vn 0.459120 -0.580326 0.672630
vn 0.568980 0.024999 0.821971
vn -0.568980 0.024999 0.821971
vn -0.459120 -0.580326 0.672630
vn -0.739320 -0.658618 -0.140104
vn -0.459120 -0.580326 -0.672630
vn 0.459120 -0.580326 -0.672630
vn 0.739320 -0.658618 -0.140104
vn 0.739376 -0.658578 0.139995
vn 0.459120 -0.580326 0.672630
vn -0.459120 -0.580326 0.672630
vn -0.739376 -0.658578 0.139995
vn 0.564414 0.021201 -0.825220
vn -0.564414 0.021201 -0.825220
vn -0.569849 0.021402 -0.821471
vn 0.569849 0.021402 -0.821471
vn -0.564829 0.020901 0.824943
vn 0.564829 0.020901 0.824943
vn 0.569624 0.021101 0.821635
vn -0.569624 0.021101 0.821635
vn -0.568980 0.024999 0.821971
vn 0.568980 0.024999 0.821971
vn 0.564829 0.020901 0.824943
vn -0.564829 0.020901 0.824943
vn 0.568912 0.025001 -0.822018
vn -0.568912 0.025001 -0.822018
vn -0.564414 0.021201 -0.825220
vn 0.564414 0.021201 -0.825220
vn -0.569313 -0.018200 0.821919
vn 0.569313 -0.018200 0.821919
vn 0.563209 -0.000900 0.826314
vn -0.563209 -0.000900 0.826314
vn -0.983591 0.010600 -0.180098
vn -0.983644 0.010700 0.179808
vn -0.983640 -0.009300 0.179907
vn -0.983570 -0.009200 -0.180294
vn -0.569624 0.021101 0.821635
vn 0.569624 0.021101 0.821635
vn 0.569313 -0.018200 0.821919
vn -0.569313 -0.018200 0.821919
vn 0.983644 0.010700 0.179808
vn 0.983591 0.010600 -0.180098
vn 0.983570 -0.009200 -0.180294
vn 0.983640 -0.009300 0.179907
vn -0.568729 0.025101 -0.822142
vn 0.568729 0.025101 -0.822142
vn 0.562728 -0.000900 -0.826641
vn -0.562728 -0.000900 -0.826641
vn 0.983640 -0.009300 0.179907
vn 0.983570 -0.009200 -0.180294
vn 0.983037 -0.000500 -0.183407
vn 0.983055 -0.000500 0.183310
vn 0.569849 0.021402 -0.821471
vn -0.569849 0.021402 -0.821471
vn -0.569492 -0.018500 -0.821789
vn 0.569492 -0.018500 -0.821789
vn -0.983570 -0.009200 -0.180294
vn -0.983640 -0.009300 0.179907
vn -0.983055 -0.000500 0.183310
vn -0.983037 -0.000500 -0.183407
vn -0.983037 -0.000500 -0.183407
vn -0.983055 -0.000500 0.183310
vn -0.983434 0.012900 0.180806
vn -0.983382 0.012800 -0.181097
vn 0.569492 -0.018500 -0.821789
vn -0.569492 -0.018500 -0.821789
vn -0.562728 -0.000900 -0.826641
vn 0.562728 -0.000900 -0.826641
vn -0.563209 -0.000900 0.826314
vn 0.563209 -0.000900 0.826314
vn 0.568617 0.024901 0.822225
vn -0.568617 0.024901 0.822225
vn -0.570252 -0.012501 0.821375
vn 0.570252 -0.012501 0.821375
vn 0.563734 -0.003400 0.825950
vn -0.563734 -0.003400 0.825950
vn -0.568617 0.024901 0.822225
vn 0.568617 0.024901 0.822225
vn 0.570252 -0.012501 0.821375
vn -0.570252 -0.012501 0.821375
vn -0.983738 -0.006000 -0.179507
vn -0.983812 -0.006100 0.179102
vn -0.982943 -0.001300 0.183908
vn -0.982907 -0.001100 -0.184101
vn 0.570499 -0.012800 -0.821199
vn -0.570499 -0.012800 -0.821199
vn -0.563389 -0.003700 -0.826184
vn 0.563321 -0.003700 -0.826230
vn -0.983382 0.012800 -0.181097
vn -0.983434 0.012900 0.180806
vn -0.983812 -0.006100 0.179102
vn -0.983738 -0.006000 -0.179507
vn 0.983812 -0.006100 0.179102
vn 0.983738 -0.006000 -0.179507
vn 0.982907 -0.001100 -0.184101
vn 0.982943 -0.001300 0.183908
vn 0.983320 0.017900 0.181004
vn 0.983969 0.013701 -0.177812
vn 0.990722 0.030201 -0.132503
vn 0.978960 0.046803 0.198612
vn -0.567019 0.033401 0.823027
vn 0.567019 0.033401 0.823027
vn 0.515786 0.194795 0.834278
vn -0.515786 0.194795 0.834278
vn 0.570928 0.020701 -0.820739
vn -0.571109 0.020700 -0.820613
vn -0.540739 0.180213 -0.821660
vn 0.540419 0.180406 -0.821828
vn 0.568729 0.025101 -0.822142
vn -0.568729 0.025101 -0.822142
vn -0.570499 -0.012800 -0.821199
vn 0.570499 -0.012800 -0.821199
vn 0.983434 0.012900 0.180806
vn 0.983382 0.012800 -0.181097
vn 0.983738 -0.006000 -0.179507
vn 0.983812 -0.006100 0.179102
vn 0.983055 -0.000500 0.183310
vn 0.983037 -0.000500 -0.183407
vn 0.983382 0.012800 -0.181097
vn 0.983434 0.012900 0.180806
vn 0.506095 0.862092 0.025800
vn 0.607321 0.340212 0.717925
vn 0.663838 0.336619 0.667838
vn 0.978960 0.046803 0.198612
vn 0.990722 0.030201 -0.132503
vn 0.740089 0.373594 -0.559192
vn -0.983990 0.013700 -0.177698
vn -0.983320 0.017900 0.181004
vn -0.978960 0.046803 0.198612
vn -0.990722 0.030201 -0.132503
vn 0.506095 0.862092 0.025800
vn -0.506406 0.861909 0.025800
vn -0.607321 0.340212 0.717925
vn 0.607321 0.340212 0.717925
vn 0.607321 0.340212 0.717925
vn -0.607321 0.340212 0.717925
vn -0.663793 0.336597 0.667893
vn -0.515786 0.194795 0.834278
vn 0.515786 0.194795 0.834278
vn 0.663838 0.336619 0.667838
vn -0.607321 0.340212 0.717925
vn -0.506406 0.861909 0.025800
vn -0.740331 0.373516 -0.558924
vn -0.990722 0.030201 -0.132503
vn -0.978960 0.046803 0.198612
vn -0.663793 0.336597 0.667893
vn -0.506406 0.861909 0.025800
vn 0.506095 0.862092 0.025800
vn 0.740089 0.373594 -0.559192
vn 0.540419 0.180406 -0.821828
vn -0.540739 0.180213 -0.821660
vn -0.740331 0.373516 -0.558924
vn 0.515786 0.194795 0.834278
vn 0.978960 0.046803 0.198612
vn 0.663838 0.336619 0.667838
vn -0.978960 0.046803 0.198612
vn -0.515786 0.194795 0.834278
vn -0.663793 0.336597 0.667893
vn -0.459120 -0.580326 0.672630
vn -0.568980 0.024999 0.821971
vn -0.983832 0.013200 0.178606
vn -0.739376 -0.658578 0.139995
vn 0.568980 0.024999 0.821971
vn 0.459120 -0.580326 0.672630
vn 0.739376 -0.658578 0.139995
vn 0.983832 0.013200 0.178606
vn 0.983832 0.013200 0.178606
vn 0.983166 0.010800 0.182394
vn 0.564829 0.020901 0.824943
vn 0.568980 0.024999 0.821971
vn -0.983166 0.010800 0.182394
vn -0.983832 0.013200 0.178606
vn -0.568980 0.024999 0.821971
vn -0.564829 0.020901 0.824943
vn 0.569624 0.021101 0.821635
vn 0.564829 0.020901 0.824943
vn 0.983166 0.010800 0.182394
vn 0.983644 0.010700 0.179808
vn -0.564829 0.020901 0.824943
vn -0.569624 0.021101 0.821635
vn -0.983644 0.010700 0.179808
vn -0.983166 0.010800 0.182394
vn -0.569624 0.021101 0.821635
vn -0.569313 -0.018200 0.821919
vn -0.983640 -0.009300 0.179907
vn -0.983644 0.010700 0.179808
vn 0.983644 0.010700 0.179808
vn 0.983640 -0.009300 0.179907
vn 0.569313 -0.018200 0.821919
vn 0.569624 0.021101 0.821635
vn 0.983640 -0.009300 0.179907
vn 0.983055 -0.000500 0.183310
vn 0.563209 -0.000900 0.826314
vn 0.569313 -0.018200 0.821919
vn -0.983055 -0.000500 0.183310
vn -0.983640 -0.009300 0.179907
vn -0.569313 -0.018200 0.821919
vn -0.563209 -0.000900 0.826314
vn 0.568617 0.024901 0.822225
vn 0.563209 -0.000900 0.826314
vn 0.983055 -0.000500 0.183310
vn 0.983434 0.012900 0.180806
vn -0.563209 -0.000900 0.826314
vn -0.568617 0.024901 0.822225
vn -0.983434 0.012900 0.180806
vn -0.983055 -0.000500 0.183310
vn -0.568617 0.024901 0.822225
vn -0.570252 -0.012501 0.821375
vn -0.983812 -0.006100 0.179102
vn -0.983434 0.012900 0.180806
vn 0.983434 0.012900 0.180806
vn 0.983812 -0.006100 0.179102
vn 0.570252 -0.012501 0.821375
vn 0.568617 0.024901 0.822225
vn 0.563734 -0.003400 0.825950
vn 0.570252 -0.012501 0.821375
vn 0.983812 -0.006100 0.179102
vn 0.982943 -0.001300 0.183908
vn -0.570252 -0.012501 0.821375
vn -0.563734 -0.003400 0.825950
vn -0.982943 -0.001300 0.183908
vn -0.983812 -0.006100 0.179102
vn -0.983320 0.017900 0.181004
vn -0.982943 -0.001300 0.183908
vn -0.563734 -0.003400 0.825950
vn -0.567019 0.033401 0.823027
vn 0.983320 0.017900 0.181004
vn 0.978960 0.046803 0.198612
vn 0.515786 0.194795 0.834278
vn 0.567019 0.033401 0.823027
vn 0.983832 0.013200 0.178606
vn 0.983797 0.013200 -0.178799
vn 0.983129 0.010600 -0.182605
vn 0.983166 0.010800 0.182394
vn -0.459120 -0.580326 -0.672630
vn -0.568912 0.025001 -0.822018
vn 0.568912 0.025001 -0.822018
vn 0.459120 -0.580326 -0.672630
vn 0.990722 0.030201 -0.132503
vn 0.540419 0.180406 -0.821828
vn 0.740089 0.373594 -0.559192
vn -0.540739 0.180213 -0.821660
vn -0.990722 0.030201 -0.132503
vn -0.740331 0.373516 -0.558924
vn 0.459120 -0.580326 -0.672630
vn 0.568912 0.025001 -0.822018
vn 0.983797 0.013200 -0.178799
vn 0.739320 -0.658618 -0.140104
vn -0.739320 -0.658618 -0.140104
vn -0.983797 0.013200 -0.178799
vn -0.568912 0.025001 -0.822018
vn -0.459120 -0.580326 -0.672630
vn -0.983797 0.013200 -0.178799
vn -0.983129 0.010600 -0.182605
vn -0.564414 0.021201 -0.825220
vn -0.568912 0.025001 -0.822018
vn 0.568912 0.025001 -0.822018
vn 0.564414 0.021201 -0.825220
vn 0.983129 0.010600 -0.182605
vn 0.983797 0.013200 -0.178799
vn -0.983129 0.010600 -0.182605
vn -0.983591 0.010600 -0.180098
vn -0.569849 0.021402 -0.821471
vn -0.564414 0.021201 -0.825220
vn 0.564414 0.021201 -0.825220
vn 0.569849 0.021402 -0.821471
vn 0.983591 0.010600 -0.180098
vn 0.983129 0.010600 -0.182605
vn -0.983591 0.010600 -0.180098
vn -0.983570 -0.009200 -0.180294
vn -0.569492 -0.018500 -0.821789
vn -0.569849 0.021402 -0.821471
vn 0.569849 0.021402 -0.821471
vn 0.569492 -0.018500 -0.821789
vn 0.983570 -0.009200 -0.180294
vn 0.983591 0.010600 -0.180098
vn -0.983570 -0.009200 -0.180294
vn -0.983037 -0.000500 -0.183407
vn -0.562728 -0.000900 -0.826641
vn -0.569492 -0.018500 -0.821789
vn 0.569492 -0.018500 -0.821789
vn 0.562728 -0.000900 -0.826641
vn 0.983037 -0.000500 -0.183407
vn 0.983570 -0.009200 -0.180294
vn -0.983037 -0.000500 -0.183407
vn -0.983382 0.012800 -0.181097
vn -0.568729 0.025101 -0.822142
vn -0.562728 -0.000900 -0.826641
vn 0.562728 -0.000900 -0.826641
vn 0.568729 0.025101 -0.822142
vn 0.983382 0.012800 -0.181097
vn 0.983037 -0.000500 -0.183407
vn -0.983382 0.012800 -0.181097
vn -0.983738 -0.006000 -0.179507
vn -0.570499 -0.012800 -0.821199
vn -0.568729 0.025101 -0.822142
vn 0.568729 0.025101 -0.822142
vn 0.570499 -0.012800 -0.821199
vn 0.983738 -0.006000 -0.179507
vn 0.983382 0.012800 -0.181097
vn -0.983738 -0.006000 -0.179507
vn -0.982907 -0.001100 -0.184101
vn -0.563389 -0.003700 -0.826184
vn -0.570499 -0.012800 -0.821199
vn 0.570499 -0.012800 -0.821199
vn 0.563321 -0.003700 -0.826230
vn 0.982907 -0.001100 -0.184101
vn 0.983738 -0.006000 -0.179507
vn -0.983990 0.013700 -0.177698
vn -0.990722 0.030201 -0.132503
vn -0.540739 0.180213 -0.821660
vn -0.571109 0.020700 -0.820613
vn 0.983969 0.013701 -0.177812
vn 0.982907 -0.001100 -0.184101
vn 0.563321 -0.003700 -0.826230
vn 0.570928 0.020701 -0.820739
vn 0.739320 -0.658618 -0.140104
vn 0.983797 0.013200 -0.178799
vn 0.983832 0.013200 0.178606
vn 0.739376 -0.658578 0.139995
vn 0.990722 0.030201 -0.132503
vn 0.983969 0.013701 -0.177812
vn 0.570928 0.020701 -0.820739
vn 0.540419 0.180406 -0.821828
vn -0.982907 -0.001100 -0.184101
vn -0.983990 0.013700 -0.177698
vn -0.571109 0.020700 -0.820613
vn -0.563389 -0.003700 -0.826184
vn 0.982943 -0.001300 0.183908
vn 0.983320 0.017900 0.181004
vn 0.567019 0.033401 0.823027
vn 0.563734 -0.003400 0.825950
vn -0.978960 0.046803 0.198612
vn -0.983320 0.017900 0.181004
vn -0.567019 0.033401 0.823027
vn -0.515786 0.194795 0.834278
vn -0.982907 -0.001100 -0.184101
vn -0.982943 -0.001300 0.183908
vn -0.983320 0.017900 0.181004
vn -0.983990 0.013700 -0.177698
vn 0.563321 -0.003700 -0.826230
vn -0.563389 -0.003700 -0.826184
vn -0.571109 0.020700 -0.820613
vn 0.570928 0.020701 -0.820739
vn -0.563734 -0.003400 0.825950
vn 0.563734 -0.003400 0.825950
vn 0.567019 0.033401 0.823027
vn -0.567019 0.033401 0.823027
vn 0.982943 -0.001300 0.183908
vn 0.982907 -0.001100 -0.184101
vn 0.983969 0.013701 -0.177812
vn 0.983320 0.017900 0.181004
s off
g Seaweed:Mesh
usemtl Seaweed:Material
f 51/1/1 10/2/2 16/3/3 57/4/4
f 12/5/5 10/2/6 51/1/7 53/6/8
f 57/4/9 16/3/10 20/7/11 61/8/12
f 13/9/13 56/10/14 60/11/15 17/12/16
f 8/13/17 6/14/18 9/15/19 11/16/20
f 53/17/21 54/18/22 49/19/23 50/20/24 7/21/25 8/22/26 11/23/27 12/24/28
f 55/25/29 58/26/30 62/27/31 59/28/32
f 15/29/33 14/30/34 18/31/35 19/32/36
f 9/15/37 6/14/38 14/30/39 15/29/40
f 47/33/41 52/34/42 58/26/43 55/25/44
f 23/35/45 22/36/46 26/37/47 27/38/48
f 61/8/49 20/7/50 24/39/51 65/40/52
f 19/32/53 18/31/54 22/36/55 23/35/56
f 17/12/57 60/11/58 64/41/59 21/42/60
f 74/43/61 71/44/62 67/45/63 70/46/64
f 21/42/65 64/41/66 68/47/67 25/48/68
f 59/28/69 62/27/70 66/49/71 63/50/72
f 65/40/73 24/39/74 28/51/75 69/52/76
f 69/52/77 28/51/78 32/53/79 73/54/80
f 63/50/81 66/49/82 70/46/83 67/45/84
f 27/38/85 26/37/86 30/55/87 31/56/88
f 35/57/89 34/58/90 38/59/91 39/60/92
f 31/56/93 30/55/94 34/58/95 35/57/96
f 77/61/97 36/62/98 40/63/99 81/64/100
f 75/65/101 78/66/102 82/67/103 79/68/104
f 73/54/105 32/53/106 36/62/107 77/61/108
f 33/69/109 76/70/110 80/71/111 37/72/112
f 91/73/113 95/74/114 83/75/115 42/76/116
f 90/77/117 92/78/118 41/79/119 45/80/120
f 96/81/121 94/82/122 86/83/123 84/84/124
f 71/44/125 74/43/126 78/66/127 75/65/128
f 29/85/129 72/86/130 76/70/131 33/69/132
f 25/48/133 68/47/134 72/86/135 29/85/136
f 3/87/137 1/88/138 43/89/139 42/76/140 83/75/141 85/90/142
f 93/91/143 89/92/144 44/93/145 87/94/146
f 3/95/147 4/96/148 2/97/149 1/98/150
f 1/98/151 2/97/152 46/99/153 45/80/154 41/100/155 43/101/156
f 2/97/157 4/96/158 88/102/159 87/94/160 44/93/161 46/99/162
f 4/96/163 3/103/164 85/104/165 84/84/166 86/83/167 88/102/168
f 41/79/169 42/76/170 43/89/171
f 44/93/172 45/80/173 46/99/174
f 11/16/175 9/15/176 10/2/177 12/5/178
f 6/14/179 8/13/180 7/105/181 5/106/182
f 5/106/183 13/9/184 14/30/185 6/14/186
f 16/3/187 10/2/188 9/15/189 15/29/190
f 18/31/191 14/30/192 13/9/193 17/12/194
f 15/29/195 19/32/196 20/7/197 16/3/198
f 19/32/199 23/35/200 24/39/201 20/7/202
f 17/12/203 21/42/204 22/36/205 18/31/206
f 21/42/207 25/48/208 26/37/209 22/36/210
f 28/51/211 24/39/212 23/35/213 27/38/214
f 30/55/215 26/37/216 25/48/217 29/85/218
f 27/38/219 31/56/220 32/53/221 28/51/222
f 31/56/223 35/57/224 36/62/225 32/53/226
f 29/85/227 33/69/228 34/58/229 30/55/230
f 38/59/231 34/58/232 33/69/233 37/72/234
f 35/57/235 39/60/236 40/63/237 36/62/238
f 89/92/239 40/63/240 39/60/241 90/77/242
f 91/73/243 42/76/244 41/79/245 92/78/246
f 5/106/247 48/107/248 56/10/249 13/9/250
f 54/108/251 52/34/252 47/33/253 49/109/254
f 83/75/255 84/110/256 85/90/257
f 86/83/258 87/94/259 88/102/260
f 49/111/261 47/112/262 48/107/263 50/113/264
f 53/6/265 51/1/266 52/34/267 54/108/268
f 51/1/269 57/4/270 58/26/271 52/34/272
f 47/112/273 55/114/274 56/10/275 48/107/276
f 57/4/277 61/8/278 62/27/279 58/26/280
f 55/114/281 59/115/282 60/11/283 56/10/284
f 61/8/285 65/40/286 66/49/287 62/27/288
f 59/115/289 63/116/290 64/41/291 60/11/292
f 65/40/293 69/52/294 70/46/295 66/49/296
f 63/116/297 67/117/298 68/47/299 64/41/300
f 69/52/301 73/54/302 74/43/303 70/46/304
f 67/117/305 71/118/306 72/86/307 68/47/308
f 73/54/309 77/61/310 78/66/311 74/43/312
f 71/118/313 75/119/314 76/70/315 72/86/316
f 77/61/317 81/64/318 82/67/319 78/66/320
f 75/119/321 79/120/322 80/71/323 76/70/324
f 93/91/325 87/94/326 86/83/327 94/82/328
f 95/74/329 80/71/330 79/120/331 96/121/332
f 50/113/333 48/107/334 5/106/335 7/105/336
f 83/75/337 95/74/338 96/121/339 84/110/340
f 81/64/341 93/91/342 94/82/343 82/67/344
f 37/72/345 91/73/346 92/78/347 38/59/348
f 44/93/349 89/92/350 90/77/351 45/80/352
f 81/64/353 40/63/354 89/92/355 93/91/356
f 79/68/357 82/67/358 94/82/359 96/81/360
f 39/60/361 38/59/362 92/78/363 90/77/364
f 37/72/365 80/71/366 95/74/367 91/73/368
